<svg width="30" height="38" viewBox="0 0 30 38" fill="none" xmlns="http://www.w3.org/2000/svg">
<g filter="url(#filter0_d_2_111)">
<path fill-rule="evenodd" clip-rule="evenodd" d="M9.42514 20.1037C9.42514 17.0535 11.9067 14.5718 14.957 14.5718C18.0074 14.5718 20.4889 17.0535 20.4889 20.1037C20.4889 23.1539 18.0073 25.6356 14.957 25.6356C11.9068 25.6356 9.42514 23.154 9.42514 20.1037ZM11.1225 20.7647L13.8596 23.5019L18.7915 18.57L17.5486 17.327L13.8596 21.016L12.3654 19.5218L11.1225 20.7647Z" fill="#58BEBF"/>
<path d="M20.5768 3.42322H18.3803C18.3803 1.53264 16.8476 0 14.957 0C13.0664 0 11.5338 1.53264 11.5338 3.42322H9.33725V7.81148H20.5768V3.42322H20.5768Z" fill="#58BEBF"/>
<path fill-rule="evenodd" clip-rule="evenodd" d="M22.3346 9.56929V3.42322H25.8736V30H4.04044V3.42322H7.57944V9.56929H22.3346ZM7.66733 20.1037C7.66733 24.1233 10.9374 27.3935 14.957 27.3935C18.9766 27.3935 22.2467 24.1233 22.2467 20.1037C22.2467 16.0843 18.9766 12.8141 14.957 12.8141C10.9375 12.8141 7.66733 16.0842 7.66733 20.1037Z" fill="#58BEBF"/>
</g>
<defs>
<filter id="filter0_d_2_111" x="0.0404358" y="0" width="29.8332" height="38" filterUnits="userSpaceOnUse" color-interpolation-filters="sRGB">
<feFlood flood-opacity="0" result="BackgroundImageFix"/>
<feColorMatrix in="SourceAlpha" type="matrix" values="0 0 0 0 0 0 0 0 0 0 0 0 0 0 0 0 0 0 127 0" result="hardAlpha"/>
<feOffset dy="4"/>
<feGaussianBlur stdDeviation="2"/>
<feComposite in2="hardAlpha" operator="out"/>
<feColorMatrix type="matrix" values="0 0 0 0 0 0 0 0 0 0 0 0 0 0 0 0 0 0 0.25 0"/>
<feBlend mode="normal" in2="BackgroundImageFix" result="effect1_dropShadow_2_111"/>
<feBlend mode="normal" in="SourceGraphic" in2="effect1_dropShadow_2_111" result="shape"/>
</filter>
</defs>
</svg>
