<svg width="37" height="30" viewBox="0 0 37 30" fill="none" xmlns="http://www.w3.org/2000/svg">
<path d="M34.2621 10.8582H26.8782C24.6847 10.8582 22.9066 12.6364 22.9066 14.8299V26.023C22.9066 28.2165 24.6847 29.9946 26.8782 29.9946H35.1644L36.5631 13.3609C36.6764 12.014 35.6137 10.8582 34.2621 10.8582Z" fill="#58BEBF"/>
<path d="M18.935 0.00543213H17.0918L16.3796 8.83272C16.1773 11.3401 14.0833 13.2719 11.5677 13.2719H10.1838V27.5809H14.8753C14.8753 27.6151 14.8753 27.6491 14.8752 27.683C14.8738 28.9594 15.908 29.9946 17.1844 29.9946H22.2349C21.3189 28.9252 20.7637 27.5381 20.7637 26.0229V14.8298C20.7637 12.9734 21.5963 11.3088 22.9066 10.1865V3.977C22.9066 1.78358 21.1284 0.00543213 18.935 0.00543213V0.00543213Z" fill="#58BEBF"/>
<path d="M0 11.8373H8.04093V29.0154H0V11.8373Z" fill="#58BEBF"/>
</svg>
